<?xml version="1.0" encoding="UTF-8" standalone="no"?>
<!DOCTYPE svg PUBLIC "-//W3C//DTD SVG 1.1//EN"
 "http://www.w3.org/Graphics/SVG/1.1/DTD/svg11.dtd">
<!-- Generated by graphviz version 13.1.2 (0)
 -->
<!-- Title: snakemake_dag Pages: 1 -->
<svg width="690pt" height="332pt"
 viewBox="0.00 0.00 690.00 332.00" xmlns="http://www.w3.org/2000/svg" xmlns:xlink="http://www.w3.org/1999/xlink">
<g id="graph0" class="graph" transform="scale(1 1) rotate(0) translate(4 328)">
<title>snakemake_dag</title>
<polygon fill="white" stroke="none" points="-4,4 -4,-328 685.7,-328 685.7,4 -4,4"/>
<!-- 0 -->
<g id="node1" class="node">
<title>0</title>
<path fill="none" stroke="#d85656" stroke-width="2" d="M367.5,-36C367.5,-36 320.75,-36 320.75,-36 314.75,-36 308.75,-30 308.75,-24 308.75,-24 308.75,-12 308.75,-12 308.75,-6 314.75,0 320.75,0 320.75,0 367.5,0 367.5,0 373.5,0 379.5,-6 379.5,-12 379.5,-12 379.5,-24 379.5,-24 379.5,-30 373.5,-36 367.5,-36"/>
<text xml:space="preserve" text-anchor="middle" x="344.12" y="-14.12" font-family="sans" font-size="10.00">bcftools_call</text>
</g>
<!-- 1 -->
<g id="node2" class="node">
<title>1</title>
<path fill="none" stroke="#59d856" stroke-width="2" d="M312.25,-324C312.25,-324 240,-324 240,-324 234,-324 228,-318 228,-312 228,-312 228,-300 228,-300 228,-294 234,-288 240,-288 240,-288 312.25,-288 312.25,-288 318.25,-288 324.25,-294 324.25,-300 324.25,-300 324.25,-312 324.25,-312 324.25,-318 318.25,-324 312.25,-324"/>
<text xml:space="preserve" text-anchor="middle" x="276.12" y="-302.12" font-family="sans" font-size="10.00">gen_random_fasta</text>
</g>
<!-- 1&#45;&gt;0 -->
<g id="edge1" class="edge">
<title>1&#45;&gt;0</title>
<path fill="none" stroke="grey" stroke-width="2" d="M273.47,-287.06C268.29,-246.62 260.09,-146.08 293.12,-72 297.4,-62.41 304.2,-53.5 311.45,-45.84"/>
<polygon fill="grey" stroke="grey" stroke-width="2" points="313.82,-48.42 318.56,-38.95 308.94,-43.4 313.82,-48.42"/>
</g>
<!-- 3 -->
<g id="node4" class="node">
<title>3</title>
<path fill="none" stroke="#d6d856" stroke-width="2" d="M74.12,-252C74.12,-252 40.12,-252 40.12,-252 34.12,-252 28.12,-246 28.12,-240 28.12,-240 28.12,-228 28.12,-228 28.12,-222 34.12,-216 40.12,-216 40.12,-216 74.12,-216 74.12,-216 80.12,-216 86.12,-222 86.12,-228 86.12,-228 86.12,-240 86.12,-240 86.12,-246 80.12,-252 74.12,-252"/>
<text xml:space="preserve" text-anchor="middle" x="57.12" y="-230.12" font-family="sans" font-size="10.00">bwa_map</text>
</g>
<!-- 1&#45;&gt;3 -->
<g id="edge13" class="edge">
<title>1&#45;&gt;3</title>
<path fill="none" stroke="grey" stroke-width="2" d="M227.25,-289.38C188.8,-277.09 135.78,-260.14 99.2,-248.45"/>
<polygon fill="grey" stroke="grey" stroke-width="2" points="100.47,-245.18 89.88,-245.47 98.34,-251.85 100.47,-245.18"/>
</g>
<!-- 6 -->
<g id="node7" class="node">
<title>6</title>
<path fill="none" stroke="#97d856" stroke-width="2" d="M204.38,-252C204.38,-252 159.88,-252 159.88,-252 153.88,-252 147.88,-246 147.88,-240 147.88,-240 147.88,-228 147.88,-228 147.88,-222 153.88,-216 159.88,-216 159.88,-216 204.38,-216 204.38,-216 210.38,-216 216.38,-222 216.38,-228 216.38,-228 216.38,-240 216.38,-240 216.38,-246 210.38,-252 204.38,-252"/>
<text xml:space="preserve" text-anchor="middle" x="182.12" y="-230.12" font-family="sans" font-size="10.00">bwa_map_2</text>
</g>
<!-- 1&#45;&gt;6 -->
<g id="edge16" class="edge">
<title>1&#45;&gt;6</title>
<path fill="none" stroke="grey" stroke-width="2" d="M252.4,-287.34C241.47,-279.19 228.28,-269.37 216.3,-260.45"/>
<polygon fill="grey" stroke="grey" stroke-width="2" points="218.7,-257.88 208.59,-254.71 214.52,-263.49 218.7,-257.88"/>
</g>
<!-- 9 -->
<g id="node10" class="node">
<title>9</title>
<path fill="none" stroke="#97d856" stroke-width="2" d="M390.38,-252C390.38,-252 345.88,-252 345.88,-252 339.88,-252 333.88,-246 333.88,-240 333.88,-240 333.88,-228 333.88,-228 333.88,-222 339.88,-216 345.88,-216 345.88,-216 390.38,-216 390.38,-216 396.38,-216 402.38,-222 402.38,-228 402.38,-228 402.38,-240 402.38,-240 402.38,-246 396.38,-252 390.38,-252"/>
<text xml:space="preserve" text-anchor="middle" x="368.12" y="-230.12" font-family="sans" font-size="10.00">bwa_map_2</text>
</g>
<!-- 1&#45;&gt;9 -->
<g id="edge19" class="edge">
<title>1&#45;&gt;9</title>
<path fill="none" stroke="grey" stroke-width="2" d="M299.34,-287.34C309.94,-279.27 322.69,-269.57 334.32,-260.72"/>
<polygon fill="grey" stroke="grey" stroke-width="2" points="336.35,-263.58 342.19,-254.73 332.11,-258 336.35,-263.58"/>
</g>
<!-- 12 -->
<g id="node13" class="node">
<title>12</title>
<path fill="none" stroke="#97d856" stroke-width="2" d="M517.38,-252C517.38,-252 472.88,-252 472.88,-252 466.88,-252 460.88,-246 460.88,-240 460.88,-240 460.88,-228 460.88,-228 460.88,-222 466.88,-216 472.88,-216 472.88,-216 517.38,-216 517.38,-216 523.38,-216 529.38,-222 529.38,-228 529.38,-228 529.38,-240 529.38,-240 529.38,-246 523.38,-252 517.38,-252"/>
<text xml:space="preserve" text-anchor="middle" x="495.12" y="-230.12" font-family="sans" font-size="10.00">bwa_map_2</text>
</g>
<!-- 1&#45;&gt;12 -->
<g id="edge22" class="edge">
<title>1&#45;&gt;12</title>
<path fill="none" stroke="grey" stroke-width="2" d="M325,-289.38C361.65,-277.66 411.53,-261.72 447.8,-250.13"/>
<polygon fill="grey" stroke="grey" stroke-width="2" points="448.67,-253.52 457.13,-247.14 446.54,-246.85 448.67,-253.52"/>
</g>
<!-- 15 -->
<g id="node16" class="node">
<title>15</title>
<path fill="none" stroke="#97d856" stroke-width="2" d="M642.38,-252C642.38,-252 597.88,-252 597.88,-252 591.88,-252 585.88,-246 585.88,-240 585.88,-240 585.88,-228 585.88,-228 585.88,-222 591.88,-216 597.88,-216 597.88,-216 642.38,-216 642.38,-216 648.38,-216 654.38,-222 654.38,-228 654.38,-228 654.38,-240 654.38,-240 654.38,-246 648.38,-252 642.38,-252"/>
<text xml:space="preserve" text-anchor="middle" x="620.12" y="-230.12" font-family="sans" font-size="10.00">bwa_map_2</text>
</g>
<!-- 1&#45;&gt;15 -->
<g id="edge25" class="edge">
<title>1&#45;&gt;15</title>
<path fill="none" stroke="grey" stroke-width="2" d="M325.15,-289.98C327.84,-289.28 330.51,-288.62 333.12,-288 423.16,-266.75 447.27,-269.39 538.12,-252 549.21,-249.88 561.11,-247.48 572.32,-245.17"/>
<polygon fill="grey" stroke="grey" stroke-width="2" points="573.02,-248.6 582.09,-243.13 571.59,-241.74 573.02,-248.6"/>
</g>
<!-- 2 -->
<g id="node3" class="node">
<title>2</title>
<path fill="none" stroke="#569ad8" stroke-width="2" d="M83.88,-180C83.88,-180 30.37,-180 30.37,-180 24.37,-180 18.38,-174 18.38,-168 18.38,-168 18.38,-156 18.38,-156 18.38,-150 24.38,-144 30.38,-144 30.38,-144 83.88,-144 83.88,-144 89.88,-144 95.88,-150 95.88,-156 95.88,-156 95.88,-168 95.88,-168 95.88,-174 89.88,-180 83.88,-180"/>
<text xml:space="preserve" text-anchor="middle" x="57.12" y="-163.75" font-family="sans" font-size="10.00">samtools_sort</text>
<text xml:space="preserve" text-anchor="middle" x="57.12" y="-152.5" font-family="sans" font-size="10.00">sample: A</text>
</g>
<!-- 2&#45;&gt;0 -->
<g id="edge2" class="edge">
<title>2&#45;&gt;0</title>
<path fill="none" stroke="grey" stroke-width="2" d="M37.06,-143.11C18,-123.99 -5.22,-93.51 13.12,-72 48.75,-30.22 211.7,-21.23 294.91,-19.4"/>
<polygon fill="grey" stroke="grey" stroke-width="2" points="294.83,-22.9 304.76,-19.22 294.7,-15.9 294.83,-22.9"/>
</g>
<!-- 17 -->
<g id="node18" class="node">
<title>17</title>
<path fill="none" stroke="#56d8d8" stroke-width="2" d="M94.25,-108C94.25,-108 34,-108 34,-108 28,-108 22,-102 22,-96 22,-96 22,-84 22,-84 22,-78 28,-72 34,-72 34,-72 94.25,-72 94.25,-72 100.25,-72 106.25,-78 106.25,-84 106.25,-84 106.25,-96 106.25,-96 106.25,-102 100.25,-108 94.25,-108"/>
<text xml:space="preserve" text-anchor="middle" x="64.12" y="-86.12" font-family="sans" font-size="10.00">samtools_index</text>
</g>
<!-- 2&#45;&gt;17 -->
<g id="edge27" class="edge">
<title>2&#45;&gt;17</title>
<path fill="none" stroke="grey" stroke-width="2" d="M58.89,-143.34C59.55,-136.75 60.32,-129.08 61.06,-121.67"/>
<polygon fill="grey" stroke="grey" stroke-width="2" points="64.52,-122.21 62.03,-111.91 57.56,-121.52 64.52,-122.21"/>
</g>
<!-- 3&#45;&gt;2 -->
<g id="edge12" class="edge">
<title>3&#45;&gt;2</title>
<path fill="none" stroke="grey" stroke-width="2" d="M57.12,-215.34C57.12,-208.75 57.12,-201.08 57.12,-193.67"/>
<polygon fill="grey" stroke="grey" stroke-width="2" points="60.63,-193.93 57.13,-183.93 53.63,-193.93 60.63,-193.93"/>
</g>
<!-- 4 -->
<g id="node5" class="node">
<title>4</title>
<path fill="none" stroke="#56d89a" stroke-width="2" stroke-dasharray="5,2" d="M84.25,-324C84.25,-324 12,-324 12,-324 6,-324 0,-318 0,-312 0,-312 0,-300 0,-300 0,-294 6,-288 12,-288 12,-288 84.25,-288 84.25,-288 90.25,-288 96.25,-294 96.25,-300 96.25,-300 96.25,-312 96.25,-312 96.25,-318 90.25,-324 84.25,-324"/>
<text xml:space="preserve" text-anchor="middle" x="48.12" y="-307.75" font-family="sans" font-size="10.00">gen_random_fastq</text>
<text xml:space="preserve" text-anchor="middle" x="48.12" y="-296.5" font-family="sans" font-size="10.00">sample: A</text>
</g>
<!-- 4&#45;&gt;3 -->
<g id="edge14" class="edge">
<title>4&#45;&gt;3</title>
<path fill="none" stroke="grey" stroke-width="2" d="M50.4,-287.34C51.24,-280.75 52.23,-273.08 53.18,-265.67"/>
<polygon fill="grey" stroke="grey" stroke-width="2" points="56.63,-266.27 54.44,-255.9 49.69,-265.38 56.63,-266.27"/>
</g>
<!-- 5 -->
<g id="node6" class="node">
<title>5</title>
<path fill="none" stroke="#569ad8" stroke-width="2" d="M208.88,-180C208.88,-180 155.38,-180 155.38,-180 149.38,-180 143.38,-174 143.38,-168 143.38,-168 143.38,-156 143.38,-156 143.38,-150 149.38,-144 155.38,-144 155.38,-144 208.88,-144 208.88,-144 214.88,-144 220.88,-150 220.88,-156 220.88,-156 220.88,-168 220.88,-168 220.88,-174 214.88,-180 208.88,-180"/>
<text xml:space="preserve" text-anchor="middle" x="182.12" y="-158.12" font-family="sans" font-size="10.00">samtools_sort</text>
</g>
<!-- 5&#45;&gt;0 -->
<g id="edge3" class="edge">
<title>5&#45;&gt;0</title>
<path fill="none" stroke="grey" stroke-width="2" d="M167.59,-143.35C153.63,-124.15 136.9,-93.35 153.12,-72 170.32,-49.38 244.8,-33.89 295.51,-25.74"/>
<polygon fill="grey" stroke="grey" stroke-width="2" points="295.82,-29.24 305.17,-24.25 294.75,-22.32 295.82,-29.24"/>
</g>
<!-- 18 -->
<g id="node19" class="node">
<title>18</title>
<path fill="none" stroke="#56d8d8" stroke-width="2" d="M234.25,-108C234.25,-108 174,-108 174,-108 168,-108 162,-102 162,-96 162,-96 162,-84 162,-84 162,-78 168,-72 174,-72 174,-72 234.25,-72 234.25,-72 240.25,-72 246.25,-78 246.25,-84 246.25,-84 246.25,-96 246.25,-96 246.25,-102 240.25,-108 234.25,-108"/>
<text xml:space="preserve" text-anchor="middle" x="204.12" y="-86.12" font-family="sans" font-size="10.00">samtools_index</text>
</g>
<!-- 5&#45;&gt;18 -->
<g id="edge28" class="edge">
<title>5&#45;&gt;18</title>
<path fill="none" stroke="grey" stroke-width="2" d="M187.68,-143.34C189.8,-136.59 192.28,-128.69 194.66,-121.11"/>
<polygon fill="grey" stroke="grey" stroke-width="2" points="197.93,-122.38 197.59,-111.79 191.25,-120.28 197.93,-122.38"/>
</g>
<!-- 6&#45;&gt;5 -->
<g id="edge15" class="edge">
<title>6&#45;&gt;5</title>
<path fill="none" stroke="grey" stroke-width="2" d="M182.12,-215.34C182.12,-208.75 182.12,-201.08 182.12,-193.67"/>
<polygon fill="grey" stroke="grey" stroke-width="2" points="185.63,-193.93 182.13,-183.93 178.63,-193.93 185.63,-193.93"/>
</g>
<!-- 7 -->
<g id="node8" class="node">
<title>7</title>
<path fill="none" stroke="#56d89a" stroke-width="2" stroke-dasharray="5,2" d="M198.25,-324C198.25,-324 126,-324 126,-324 120,-324 114,-318 114,-312 114,-312 114,-300 114,-300 114,-294 120,-288 126,-288 126,-288 198.25,-288 198.25,-288 204.25,-288 210.25,-294 210.25,-300 210.25,-300 210.25,-312 210.25,-312 210.25,-318 204.25,-324 198.25,-324"/>
<text xml:space="preserve" text-anchor="middle" x="162.12" y="-307.75" font-family="sans" font-size="10.00">gen_random_fastq</text>
<text xml:space="preserve" text-anchor="middle" x="162.12" y="-296.5" font-family="sans" font-size="10.00">sample: B</text>
</g>
<!-- 7&#45;&gt;6 -->
<g id="edge17" class="edge">
<title>7&#45;&gt;6</title>
<path fill="none" stroke="grey" stroke-width="2" d="M167.17,-287.34C169.08,-280.67 171.3,-272.89 173.44,-265.39"/>
<polygon fill="grey" stroke="grey" stroke-width="2" points="176.8,-266.39 176.18,-255.81 170.07,-264.47 176.8,-266.39"/>
</g>
<!-- 8 -->
<g id="node9" class="node">
<title>8</title>
<path fill="none" stroke="#569ad8" stroke-width="2" d="M394.88,-180C394.88,-180 341.38,-180 341.38,-180 335.38,-180 329.38,-174 329.38,-168 329.38,-168 329.38,-156 329.38,-156 329.38,-150 335.38,-144 341.38,-144 341.38,-144 394.88,-144 394.88,-144 400.88,-144 406.88,-150 406.88,-156 406.88,-156 406.88,-168 406.88,-168 406.88,-174 400.88,-180 394.88,-180"/>
<text xml:space="preserve" text-anchor="middle" x="368.12" y="-158.12" font-family="sans" font-size="10.00">samtools_sort</text>
</g>
<!-- 8&#45;&gt;0 -->
<g id="edge4" class="edge">
<title>8&#45;&gt;0</title>
<path fill="none" stroke="grey" stroke-width="2" d="M380.53,-143.29C391.66,-125.1 404.84,-96.11 395.12,-72 391.23,-62.34 384.64,-53.46 377.47,-45.83"/>
<polygon fill="grey" stroke="grey" stroke-width="2" points="380.03,-43.44 370.41,-38.99 375.16,-48.46 380.03,-43.44"/>
</g>
<!-- 19 -->
<g id="node20" class="node">
<title>19</title>
<path fill="none" stroke="#56d8d8" stroke-width="2" d="M374.25,-108C374.25,-108 314,-108 314,-108 308,-108 302,-102 302,-96 302,-96 302,-84 302,-84 302,-78 308,-72 314,-72 314,-72 374.25,-72 374.25,-72 380.25,-72 386.25,-78 386.25,-84 386.25,-84 386.25,-96 386.25,-96 386.25,-102 380.25,-108 374.25,-108"/>
<text xml:space="preserve" text-anchor="middle" x="344.12" y="-86.12" font-family="sans" font-size="10.00">samtools_index</text>
</g>
<!-- 8&#45;&gt;19 -->
<g id="edge29" class="edge">
<title>8&#45;&gt;19</title>
<path fill="none" stroke="grey" stroke-width="2" d="M362.07,-143.34C359.76,-136.59 357.05,-128.69 354.45,-121.11"/>
<polygon fill="grey" stroke="grey" stroke-width="2" points="357.8,-120.09 351.24,-111.77 351.18,-122.36 357.8,-120.09"/>
</g>
<!-- 9&#45;&gt;8 -->
<g id="edge18" class="edge">
<title>9&#45;&gt;8</title>
<path fill="none" stroke="grey" stroke-width="2" d="M368.12,-215.34C368.12,-208.75 368.12,-201.08 368.12,-193.67"/>
<polygon fill="grey" stroke="grey" stroke-width="2" points="371.63,-193.93 368.13,-183.93 364.63,-193.93 371.63,-193.93"/>
</g>
<!-- 10 -->
<g id="node11" class="node">
<title>10</title>
<path fill="none" stroke="#56d89a" stroke-width="2" stroke-dasharray="5,2" d="M426.25,-324C426.25,-324 354,-324 354,-324 348,-324 342,-318 342,-312 342,-312 342,-300 342,-300 342,-294 348,-288 354,-288 354,-288 426.25,-288 426.25,-288 432.25,-288 438.25,-294 438.25,-300 438.25,-300 438.25,-312 438.25,-312 438.25,-318 432.25,-324 426.25,-324"/>
<text xml:space="preserve" text-anchor="middle" x="390.12" y="-307.75" font-family="sans" font-size="10.00">gen_random_fastq</text>
<text xml:space="preserve" text-anchor="middle" x="390.12" y="-296.5" font-family="sans" font-size="10.00">sample: C</text>
</g>
<!-- 10&#45;&gt;9 -->
<g id="edge20" class="edge">
<title>10&#45;&gt;9</title>
<path fill="none" stroke="grey" stroke-width="2" d="M384.57,-287.34C382.45,-280.59 379.97,-272.69 377.59,-265.11"/>
<polygon fill="grey" stroke="grey" stroke-width="2" points="381,-264.28 374.66,-255.79 374.32,-266.38 381,-264.28"/>
</g>
<!-- 11 -->
<g id="node12" class="node">
<title>11</title>
<path fill="none" stroke="#569ad8" stroke-width="2" d="M521.88,-180C521.88,-180 468.38,-180 468.38,-180 462.38,-180 456.38,-174 456.38,-168 456.38,-168 456.38,-156 456.38,-156 456.38,-150 462.38,-144 468.38,-144 468.38,-144 521.88,-144 521.88,-144 527.88,-144 533.88,-150 533.88,-156 533.88,-156 533.88,-168 533.88,-168 533.88,-174 527.88,-180 521.88,-180"/>
<text xml:space="preserve" text-anchor="middle" x="495.12" y="-158.12" font-family="sans" font-size="10.00">samtools_sort</text>
</g>
<!-- 11&#45;&gt;0 -->
<g id="edge5" class="edge">
<title>11&#45;&gt;0</title>
<path fill="none" stroke="grey" stroke-width="2" d="M513.42,-143.35C530.79,-124.42 551.94,-94.12 535.12,-72 517.93,-49.38 443.45,-33.89 392.74,-25.74"/>
<polygon fill="grey" stroke="grey" stroke-width="2" points="393.5,-22.32 383.08,-24.25 392.43,-29.24 393.5,-22.32"/>
</g>
<!-- 20 -->
<g id="node21" class="node">
<title>20</title>
<path fill="none" stroke="#56d8d8" stroke-width="2" d="M514.25,-108C514.25,-108 454,-108 454,-108 448,-108 442,-102 442,-96 442,-96 442,-84 442,-84 442,-78 448,-72 454,-72 454,-72 514.25,-72 514.25,-72 520.25,-72 526.25,-78 526.25,-84 526.25,-84 526.25,-96 526.25,-96 526.25,-102 520.25,-108 514.25,-108"/>
<text xml:space="preserve" text-anchor="middle" x="484.12" y="-86.12" font-family="sans" font-size="10.00">samtools_index</text>
</g>
<!-- 11&#45;&gt;20 -->
<g id="edge30" class="edge">
<title>11&#45;&gt;20</title>
<path fill="none" stroke="grey" stroke-width="2" d="M492.35,-143.34C491.31,-136.75 490.11,-129.08 488.94,-121.67"/>
<polygon fill="grey" stroke="grey" stroke-width="2" points="492.42,-121.23 487.41,-111.89 485.5,-122.31 492.42,-121.23"/>
</g>
<!-- 12&#45;&gt;11 -->
<g id="edge21" class="edge">
<title>12&#45;&gt;11</title>
<path fill="none" stroke="grey" stroke-width="2" d="M495.12,-215.34C495.12,-208.75 495.12,-201.08 495.12,-193.67"/>
<polygon fill="grey" stroke="grey" stroke-width="2" points="498.63,-193.93 495.13,-183.93 491.63,-193.93 498.63,-193.93"/>
</g>
<!-- 13 -->
<g id="node14" class="node">
<title>13</title>
<path fill="none" stroke="#56d89a" stroke-width="2" stroke-dasharray="5,2" d="M540.25,-324C540.25,-324 468,-324 468,-324 462,-324 456,-318 456,-312 456,-312 456,-300 456,-300 456,-294 462,-288 468,-288 468,-288 540.25,-288 540.25,-288 546.25,-288 552.25,-294 552.25,-300 552.25,-300 552.25,-312 552.25,-312 552.25,-318 546.25,-324 540.25,-324"/>
<text xml:space="preserve" text-anchor="middle" x="504.12" y="-307.75" font-family="sans" font-size="10.00">gen_random_fastq</text>
<text xml:space="preserve" text-anchor="middle" x="504.12" y="-296.5" font-family="sans" font-size="10.00">sample: D</text>
</g>
<!-- 13&#45;&gt;12 -->
<g id="edge23" class="edge">
<title>13&#45;&gt;12</title>
<path fill="none" stroke="grey" stroke-width="2" d="M501.85,-287.34C501.01,-280.75 500.02,-273.08 499.07,-265.67"/>
<polygon fill="grey" stroke="grey" stroke-width="2" points="502.56,-265.38 497.81,-255.9 495.62,-266.27 502.56,-265.38"/>
</g>
<!-- 14 -->
<g id="node15" class="node">
<title>14</title>
<path fill="none" stroke="#569ad8" stroke-width="2" d="M650.88,-180C650.88,-180 597.38,-180 597.38,-180 591.38,-180 585.38,-174 585.38,-168 585.38,-168 585.38,-156 585.38,-156 585.38,-150 591.38,-144 597.38,-144 597.38,-144 650.88,-144 650.88,-144 656.88,-144 662.88,-150 662.88,-156 662.88,-156 662.88,-168 662.88,-168 662.88,-174 656.88,-180 650.88,-180"/>
<text xml:space="preserve" text-anchor="middle" x="624.12" y="-158.12" font-family="sans" font-size="10.00">samtools_sort</text>
</g>
<!-- 14&#45;&gt;0 -->
<g id="edge6" class="edge">
<title>14&#45;&gt;0</title>
<path fill="none" stroke="grey" stroke-width="2" d="M646.88,-143.04C668.13,-124.13 693.96,-94.09 675.12,-72 639.5,-30.22 476.55,-21.23 393.34,-19.4"/>
<polygon fill="grey" stroke="grey" stroke-width="2" points="393.55,-15.9 383.49,-19.22 393.42,-22.9 393.55,-15.9"/>
</g>
<!-- 21 -->
<g id="node22" class="node">
<title>21</title>
<path fill="none" stroke="#56d8d8" stroke-width="2" d="M654.25,-108C654.25,-108 594,-108 594,-108 588,-108 582,-102 582,-96 582,-96 582,-84 582,-84 582,-78 588,-72 594,-72 594,-72 654.25,-72 654.25,-72 660.25,-72 666.25,-78 666.25,-84 666.25,-84 666.25,-96 666.25,-96 666.25,-102 660.25,-108 654.25,-108"/>
<text xml:space="preserve" text-anchor="middle" x="624.12" y="-86.12" font-family="sans" font-size="10.00">samtools_index</text>
</g>
<!-- 14&#45;&gt;21 -->
<g id="edge31" class="edge">
<title>14&#45;&gt;21</title>
<path fill="none" stroke="grey" stroke-width="2" d="M624.12,-143.34C624.12,-136.75 624.12,-129.08 624.12,-121.67"/>
<polygon fill="grey" stroke="grey" stroke-width="2" points="627.63,-121.93 624.13,-111.93 620.63,-121.93 627.63,-121.93"/>
</g>
<!-- 15&#45;&gt;14 -->
<g id="edge24" class="edge">
<title>15&#45;&gt;14</title>
<path fill="none" stroke="grey" stroke-width="2" d="M621.13,-215.34C621.51,-208.75 621.95,-201.08 622.37,-193.67"/>
<polygon fill="grey" stroke="grey" stroke-width="2" points="625.85,-194.11 622.93,-183.92 618.86,-193.71 625.85,-194.11"/>
</g>
<!-- 16 -->
<g id="node17" class="node">
<title>16</title>
<path fill="none" stroke="#56d89a" stroke-width="2" d="M656.25,-324C656.25,-324 584,-324 584,-324 578,-324 572,-318 572,-312 572,-312 572,-300 572,-300 572,-294 578,-288 584,-288 584,-288 656.25,-288 656.25,-288 662.25,-288 668.25,-294 668.25,-300 668.25,-300 668.25,-312 668.25,-312 668.25,-318 662.25,-324 656.25,-324"/>
<text xml:space="preserve" text-anchor="middle" x="620.12" y="-307.75" font-family="sans" font-size="10.00">gen_random_fastq</text>
<text xml:space="preserve" text-anchor="middle" x="620.12" y="-296.5" font-family="sans" font-size="10.00">sample: E</text>
</g>
<!-- 16&#45;&gt;15 -->
<g id="edge26" class="edge">
<title>16&#45;&gt;15</title>
<path fill="none" stroke="grey" stroke-width="2" d="M620.12,-287.34C620.12,-280.75 620.12,-273.08 620.12,-265.67"/>
<polygon fill="grey" stroke="grey" stroke-width="2" points="623.63,-265.93 620.13,-255.93 616.63,-265.93 623.63,-265.93"/>
</g>
<!-- 17&#45;&gt;0 -->
<g id="edge7" class="edge">
<title>17&#45;&gt;0</title>
<path fill="none" stroke="grey" stroke-width="2" d="M107.16,-75.64C111.53,-74.37 115.91,-73.14 120.12,-72 180.13,-55.81 249.89,-39.73 295.42,-29.6"/>
<polygon fill="grey" stroke="grey" stroke-width="2" points="295.91,-33.08 304.91,-27.5 294.39,-26.25 295.91,-33.08"/>
</g>
<!-- 18&#45;&gt;0 -->
<g id="edge8" class="edge">
<title>18&#45;&gt;0</title>
<path fill="none" stroke="grey" stroke-width="2" d="M239.82,-71.15C257.18,-62.47 278.28,-51.92 296.95,-42.59"/>
<polygon fill="grey" stroke="grey" stroke-width="2" points="298.41,-45.77 305.79,-38.17 295.28,-39.51 298.41,-45.77"/>
</g>
<!-- 19&#45;&gt;0 -->
<g id="edge9" class="edge">
<title>19&#45;&gt;0</title>
<path fill="none" stroke="grey" stroke-width="2" d="M344.12,-71.34C344.12,-64.75 344.12,-57.08 344.12,-49.67"/>
<polygon fill="grey" stroke="grey" stroke-width="2" points="347.63,-49.93 344.13,-39.93 340.63,-49.93 347.63,-49.93"/>
</g>
<!-- 20&#45;&gt;0 -->
<g id="edge10" class="edge">
<title>20&#45;&gt;0</title>
<path fill="none" stroke="grey" stroke-width="2" d="M448.43,-71.15C431.07,-62.47 409.97,-51.92 391.3,-42.59"/>
<polygon fill="grey" stroke="grey" stroke-width="2" points="392.97,-39.51 382.46,-38.17 389.84,-45.77 392.97,-39.51"/>
</g>
<!-- 21&#45;&gt;0 -->
<g id="edge11" class="edge">
<title>21&#45;&gt;0</title>
<path fill="none" stroke="grey" stroke-width="2" d="M581.09,-75.64C576.72,-74.37 572.34,-73.14 568.12,-72 508.12,-55.81 438.36,-39.73 392.83,-29.6"/>
<polygon fill="grey" stroke="grey" stroke-width="2" points="393.86,-26.25 383.34,-27.5 392.34,-33.08 393.86,-26.25"/>
</g>
</g>
</svg>
